name Walk3.mot
datacolumns 19
datarows 17
range 4.08000000 4.16000000
endheader

                time	   L_ground_force_vx	   L_ground_force_vy	   L_ground_force_vz	   L_ground_force_px	   L_ground_force_py	   L_ground_force_pz	   R_ground_force_vx	   R_ground_force_vy	   R_ground_force_vz	   R_ground_force_px	   R_ground_force_py	   R_ground_force_pz	   L_ground_torque_x	   L_ground_torque_y	   L_ground_torque_z	   R_ground_torque_x	   R_ground_torque_y	   R_ground_torque_z	
          4.08000000	         43.22344697	        956.50647872	         69.96526932	         -0.25869730	          0.00000000	         -0.07826232	         -0.01963122	          0.28180911	          0.02102441	          0.00016912	          0.00000000	          0.00012372	          0.00000000	          0.25014021	          0.00000000	          0.00000000	          0.00382696	          0.00000000	
          4.08500000	         45.03068523	        963.37117531	         71.01549225	         -0.25669757	          0.00000000	         -0.07836468	         -0.02858610	          0.36204885	          0.02470011	          0.00020084	          0.00000000	          0.00014593	          0.00000000	          0.34311670	          0.00000000	          0.00000000	          0.00560207	          0.00000000	
          4.09000000	         46.91103734	        969.90202828	         72.07963693	         -0.25471372	          0.00000000	         -0.07846111	         -0.03902469	          0.44252229	          0.02738571	          0.00022554	          0.00000000	          0.00016257	          0.00000000	          0.44346511	          0.00000000	          0.00000000	          0.00767926	          0.00000000	
          4.09500000	         48.90266133	        976.10495727	         73.13391664	         -0.25275602	          0.00000000	         -0.07854668	         -0.05048957	          0.51343552	          0.02819616	          0.00023625	          0.00000000	          0.00016847	          0.00000000	          0.54899633	          0.00000000	          0.00000000	          0.00997132	          0.00000000	
          4.10000000	         51.03694658	        981.98960050	         74.15372168	         -0.25083439	          0.00000000	         -0.07861522	         -0.06214088	          0.56069515	          0.02598257	          0.00022380	          0.00000000	          0.00015689	          0.00000000	          0.65686914	          0.00000000	          0.00000000	          0.01231576	          0.00000000	
          4.10500000	         53.33783211	        987.56798030	         75.11481160	         -0.24895805	          0.00000000	         -0.07866043	         -0.07264600	          0.56524140	          0.01932636	          0.00017679	          0.00000000	          0.00011948	          0.00000000	          0.76391388	          0.00000000	          0.00000000	          0.01445276	          0.00000000	
          4.11000000	         55.82143522	        992.85393511	         75.99473407	         -0.24713495	          0.00000000	         -0.07867650	         -0.08006817	          0.50262059	          0.00656333	          0.00008169	          0.00000000	          0.00004642	          0.00000000	          0.86728264	          0.00000000	          0.00000000	          0.01600272	          0.00000000	
          4.11500000	         58.49690705	        997.86021398	         76.77526487	         -0.24537155	          0.00000000	         -0.07865838	         -0.08176750	          0.34298374	         -0.01414853	         -0.00007669	          0.00000000	         -0.00007324	          0.00000000	          0.96478210	          0.00000000	          0.00000000	          0.01644611	          0.00000000	
          4.12000000	         61.36731998	       1002.59416295	         77.44326738	         -0.24367284	          0.00000000	         -0.07860278	         -0.07433317	          0.05174975	         -0.04470127	         -0.00031421	          0.00000000	         -0.00025080	          0.00000000	          1.05491607	          0.00000000	          0.00000000	          0.01510927	          0.00000000	
          4.12500000	         64.43029313	       1007.05724165	         77.99089619	         -0.24204170	          0.00000000	         -0.07850862	         -0.05357286	         -0.40877683	         -0.08683168	         -0.00064585	          0.00000000	         -0.00049675	          0.00000000	          1.13691673	          0.00000000	          0.00000000	          0.01116121	          0.00000000	
          4.13000000	         67.67694440	       1011.24701245	         78.41468834	         -0.24047911	          0.00000000	         -0.07837613	         -0.01459261	         -1.07649896	         -0.14182020	         -0.00108333	          0.00000000	         -0.00081902	          0.00000000	          1.21064962	          0.00000000	          0.00000000	          0.00362821	          0.00000000	
          4.13500000	         71.09360523	       1015.16031963	         78.71412640	         -0.23898514	          0.00000000	         -0.07820651	          0.04799207	         -1.98496876	         -0.21007776	         -0.00163194	          0.00000000	         -0.00122055	          0.00000000	          1.27645449	          0.00000000	          0.00000000	         -0.00856606	          0.00000000	
          4.14000000	         74.66317210	       1018.79361961	         78.89163377	         -0.23755946	          0.00000000	         -0.07800174	          0.13966659	         -3.15681574	         -0.29060873	         -0.00228616	          0.00000000	         -0.00169617	          0.00000000	          1.33487445	          0.00000000	          0.00000000	         -0.02652513	          0.00000000	
          4.14500000	         78.36834392	       1022.14499484	         78.95220251	         -0.23620179	          0.00000000	         -0.07776407	          0.26539715	         -4.59484612	         -0.38034688	         -0.00302439	          0.00000000	         -0.00222865	          0.00000000	          1.38642670	          0.00000000	          0.00000000	         -0.05125883	          0.00000000	
          4.15000000	         82.19515712	       1025.21671459	         78.90391286	         -0.23491333	          0.00000000	         -0.07749696	          0.42872792	         -6.27060797	         -0.47337528	         -0.00380258	          0.00000000	         -0.00278413	          0.00000000	          1.43149127	          0.00000000	          0.00000000	         -0.08350642	          0.00000000	
          4.15500000	         86.13572956	       1028.01497076	         78.75841751	         -0.23369682	          0.00000000	         -0.07720526	          0.63054842	         -8.11041496	         -0.56006141	         -0.00454710	          0.00000000	         -0.00330697	          0.00000000	          1.47008761	          0.00000000	          0.00000000	         -0.12349397	          0.00000000	
          4.16000000	         90.18734079	       1030.54940203	         78.53133462	         -0.23255499	          0.00000000	         -0.07689495	          0.86749888	         -9.97913074	         -0.62616670	         -0.00514732	          0.00000000	         -0.00371444	          0.00000000	          1.50203039	          0.00000000	          0.00000000	         -0.17061947	          0.00000000	
